<svg width="512" height="512" viewBox="0 0 135.467 135.467" xmlns="http://www.w3.org/2000/svg"><path d="M99.552 105.673c-4.52 4.52-25.103-6.865-31.416-5.865-6.313 1-22.371 18.188-28.066 15.286-5.696-2.902-1.228-25.996-4.13-31.691S11.729 67.747 12.728 61.434c1-6.313 24.345-9.2 28.864-13.72 4.52-4.52 7.408-27.865 13.721-28.865s16.274 20.31 21.969 23.212c5.695 2.902 28.79-1.566 31.691 4.13 2.902 5.695-14.287 21.753-15.287 28.066-1 6.313 10.386 26.896 5.866 31.416z" transform="matrix(1.10134 .18953 -.18244 1.14413 10.543 -18.602)" fill="none" stroke="#000" stroke-width="10.583" stroke-linecap="round" stroke-linejoin="round"/></svg>